<svg width="35" height="27" viewBox="0 0 35 27" fill="none" xmlns="http://www.w3.org/2000/svg">
<path d="M31.5 0.785156H3.5C1.575 0.785156 0.0175 2.23415 0.0175 4.00515L0 23.3251C0 25.0961 1.575 26.5451 3.5 26.5451H31.5C33.425 26.5451 35 25.0961 35 23.3251V4.00515C35 2.23415 33.425 0.785156 31.5 0.785156ZM30.8 7.62765L18.4275 14.7438C17.8675 15.0658 17.1325 15.0658 16.5725 14.7438L4.2 7.62765C4.02452 7.53702 3.87086 7.41458 3.74831 7.26774C3.62575 7.1209 3.53686 6.9527 3.48701 6.77334C3.43716 6.59397 3.42738 6.40717 3.45827 6.22422C3.48917 6.04128 3.56009 5.86601 3.66674 5.70901C3.7734 5.55202 3.91357 5.41657 4.07877 5.31085C4.24397 5.20514 4.43077 5.13136 4.62787 5.09399C4.82496 5.05662 5.02825 5.05643 5.22542 5.09343C5.4226 5.13043 5.60956 5.20385 5.775 5.30925L17.5 12.0551L29.225 5.30925C29.3904 5.20385 29.5774 5.13043 29.7746 5.09343C29.9718 5.05643 30.175 5.05662 30.3721 5.09399C30.5692 5.13136 30.756 5.20514 30.9212 5.31085C31.0864 5.41657 31.2266 5.55202 31.3333 5.70901C31.4399 5.86601 31.5108 6.04128 31.5417 6.22422C31.5726 6.40717 31.5628 6.59397 31.513 6.77334C31.4631 6.9527 31.3743 7.1209 31.2517 7.26774C31.1291 7.41458 30.9755 7.53702 30.8 7.62765Z" fill="#EA7D06"/>
</svg>
