<svg width="28" height="38" viewBox="0 0 28 38" fill="none" xmlns="http://www.w3.org/2000/svg">
<path d="M14 0.785156C6.27112 0.785156 0 6.06381 0 12.5682C0 23.0421 14 37.4436 14 37.4436C14 37.4436 28 23.0421 28 12.5682C28 6.06381 21.7289 0.785156 14 0.785156ZM14 19.1144C12.8924 19.1144 11.8097 18.8072 10.8888 18.2318C9.96789 17.6563 9.25012 16.8385 8.82627 15.8815C8.40242 14.9246 8.29152 13.8716 8.5076 12.8558C8.72368 11.8399 9.25703 10.9068 10.0402 10.1744C10.8234 9.44199 11.8212 8.94322 12.9075 8.74116C13.9938 8.53909 15.1198 8.6428 16.143 9.03917C17.1663 9.43554 18.0409 10.1068 18.6562 10.968C19.2716 11.8292 19.6 12.8417 19.6 13.8774C19.5984 15.2659 19.0079 16.5971 17.958 17.5788C16.9082 18.5606 15.4847 19.1129 14 19.1144Z" fill="#EA7D06"/>
</svg>
