<?xml version="1.0" encoding="utf-8"?>
<!-- Generator: Adobe Illustrator 23.0.3, SVG Export Plug-In . SVG Version: 6.00 Build 0)  -->
<svg version="1.1" id="Layer_1" xmlns="http://www.w3.org/2000/svg" xmlns:xlink="http://www.w3.org/1999/xlink" x="0px" y="0px"
	 viewBox="0 0 268.2 69.2" style="enable-background:new 0 0 268.2 69.2;" xml:space="preserve">
<style type="text/css">
	.st0{fill-rule:evenodd;clip-rule:evenodd;fill:#FF0000;}
	.st1{fill-rule:evenodd;clip-rule:evenodd;fill:#FFCC00;}
	.st2{fill-rule:evenodd;clip-rule:evenodd;}
</style>
<title>germanywale logo</title>
<path d="M88.6,44.2c0-0.6,0-1.2-0.1-1.8l0,0h-0.1c-1.1,1.1-2.7,1.6-4.2,1.6c-4.9,0-7-3.6-7-8.1c0-4,1.5-10.8,10.4-10.8
	c0.9,0,1.8,0.1,2.6,0.4c0.1,0,0.1,0.2,0.1,0.4c0,0.9-0.1,1.8-0.4,2.6C88.9,28.1,88,28,87,28c-3.7,0-6.3,2.5-6.3,7.5
	c0,3,1.2,5.2,3.9,5.2c2.4,0,3.8-1.8,3.8-2.3v-0.9c0-0.6,0-1.2-0.2-1.8c-0.8-0.2-1.7-0.3-2.5-0.2c-0.5,0-1.1,0-1.6,0.1
	c-0.1,0-0.1-0.2-0.1-0.2c0-0.9,0.3-1.8,0.9-2.5c2.1-0.3,4.2-0.5,6.4-0.4c0.5,0,1,0,1.5,0.1c-0.1,1.1-0.4,2.1-0.9,3.1
	c0,0,0,7.3-0.2,7.6c-0.7,0.6-1.6,0.9-2.4,0.9C88.9,44.3,88.6,44.3,88.6,44.2z"/>
<path d="M102.2,32.5c0.7,0,1.5,0,2.2,0.1c-0.1,0.9-0.4,1.8-0.9,2.6c-1.5,0-2.9,0.1-4.4,0.4c0,0.3,0,0.6,0,0.8c0,1.3,0,2.5,0.1,3.8
	c0.4,0.4,3.9,0.4,4.6,0.4c0.9,0,1.9-0.1,2.8-0.2l0,0c-0.1,1.1-0.6,2.1-1.3,2.9c-1.8,0.2-3.6,0.3-5.3,0.3c-1.4,0.1-2.8,0-4.2-0.2
	c-0.1-1.3-0.2-2.5-0.2-3.8c0-1.2,0-2.7,0-4c-0.8-0.8-1.2-1.8-1.4-2.9c0.5-0.1,1-0.1,1.4-0.1c0-1.1,0-2.2,0-2.9c0-0.4,0-0.8,0-1.3
	c-0.6-0.9-1-1.9-1.2-2.9c0.2-0.2,7.2-0.3,9.5-0.3c0.8,0,1.5,0,2.3,0.1c0,1-0.5,2-1.2,2.7c-0.3,0-0.5-0.1-0.8-0.1
	c-1.7,0-3.4,0.1-5,0.4c-0.2,1-0.2,2-0.2,3c0,0.6,0,1.1,0,1.1C100.2,32.5,101.3,32.5,102.2,32.5z"/>
<path d="M115.5,36.5c-0.8,0.2-1.7,0.4-2.6,0.6c0,2.1,0,4.2,0.3,6.3c-0.8,0.5-1.8,0.7-2.7,0.7c-0.3,0-0.7,0-1-0.2
	c0-4,0.2-15.6,0.2-15.6c-0.5-0.9-0.9-1.8-1-2.8c0-0.1,0-0.1,0-0.1c1.7-0.3,3.5-0.4,5.3-0.3c3.4,0,8.7,0.6,8.7,4.9
	c0,2.4-1.7,4.2-4.2,5.4c0,0.4,2.9,6.8,4.4,8.3c0,0,0,0,0,0.1c-0.9,0.6-1.9,0.9-3,0.9c-0.2,0-0.4,0-0.7-0.1
	C118.3,43.6,115.6,37.2,115.5,36.5z M119.1,30.1c0-1.5-1.9-2.2-4.1-2.2c-0.6,0-1.3,0.1-1.9,0.2c-0.1,0.8-0.2,3.3-0.2,6
	C117.6,33.6,119.1,31.4,119.1,30.1z"/>
<path d="M139,44.4c-0.4,0-0.8,0-0.8-0.1c0-0.7,0.1-1.8,0.1-3.1c0-4-0.2-9.6-0.4-10.4c0-0.1-0.1-0.1-0.1-0.1s-0.2,0.2-0.2,0.2
	c-1.2,2.2-3.4,9.5-3.4,9.5c-0.1,0.2-0.8,0.3-1.1,0.3c-0.4,0-0.8-0.1-1.2-0.2c0-0.1-3.1-9-3.5-9.5c-0.1-0.1-0.1-0.2-0.1-0.2
	s-0.1,0.1-0.1,0.2c-0.4,2.9-0.5,5.8-0.5,8.6c0,1.4,0,2.7,0.1,4.1c-0.8,0.5-1.8,0.7-2.7,0.7c-0.3,0-0.7,0-1-0.2c0-5.1,1-15.7,1-15.7
	c-0.5-0.8-0.9-1.8-1.1-2.7c0,0,0-0.1,0-0.1c1.2-0.2,2.3-0.3,3.5-0.3c0.8,0,1.5,0,2.3,0.1c0.2,0.2,2.4,6.6,3,8.4c0,0,0.1,0.1,0.1,0.1
	s0.1,0,0.1-0.2c0.2-0.7,2.8-7.7,3.5-8.4c1.2-0.2,2.4-0.3,3.7-0.3c0.3,0,1.3,0,1.3,0.1c-0.2,1.1-0.5,2.2-1,3.2c0,0,0.9,8.6,0.9,15.2
	C140.9,44.2,139.9,44.4,139,44.4z"/>
<path d="M151.2,37.1c-1,0-2.1,0-3.1,0.1c-0.8,2.2-1.3,4.5-1.6,6.8c-0.2,0-0.4,0-0.6,0c-1,0-1.9-0.1-2.9-0.5c0.5-2.1,1.1-4.3,1.9-6.3
	c-0.7-0.8-1.1-1.7-1.3-2.8c0,0,0.9,0,2.2-0.1c1.1-3.3,2.4-6.6,2.5-6.8c0.7-0.2,1.4-0.4,2.1-0.4c0,0-0.3-1.4-0.3-1.8
	c0.9-0.6,2.1-1,3.2-1c0,0,2.3,14.2,4.9,18.7l0.2,0.3c-0.9,0.9-2.1,1.3-3.4,1.4c-0.4,0-2.1-6-2.4-7.7
	C152.3,37.1,151.8,37.1,151.2,37.1z M150.9,29.6c-0.1,0-0.1,0.1-0.1,0.1c-0.3,0.6-1.5,3.7-1.8,4.6c1,0,2,0,3,0.1
	C151.4,32,151,29.9,150.9,29.6C151,29.6,151,29.6,150.9,29.6z"/>
<path d="M169.8,43.8c-1.6-4.4-3.5-8.8-5.6-13c0-0.1-0.1-0.1-0.1-0.1c-0.1,0-0.1,0.2-0.1,0.2c-0.1,1-0.1,2.1-0.1,3.1
	c0,3.1,0.1,6.2,0.4,9.3c-0.8,0.5-1.7,0.7-2.6,0.7c-0.3,0-0.7,0-1-0.2V43c0-4.7,0.4-14.6,0.4-14.6c-0.5-0.9-0.9-1.8-1-2.8
	c0,0,0-0.1,0-0.1c1.2-0.2,2.4-0.3,3.6-0.3c0.7,0,1.3,0,2,0.1c0,0,4.8,10.7,4.9,11c0,0.1,0.1,0.1,0.1,0.1s0.1-0.2,0.1-0.2v-0.8
	c0-2.8-0.2-8.8-0.5-10c0.9-0.5,1.9-0.8,3-0.9c0.8,0,1,0.1,1,0.1c-0.1,0.7-0.2,1.3-0.4,2c-0.2,1.8-0.2,3.6-0.2,5.4
	c0,4.8,0.2,11,0.2,11.1s-1.2,0.7-3.2,0.7C170.4,43.9,170.1,43.9,169.8,43.8z"/>
<path d="M184,32.9c0.2-0.5,4.3-8,4.8-8c1.8,0,3.4,0.8,3.3,1.1c-1.5,1.7-5.9,7.9-6.6,10.2c0,0.3,0,1.1,0,2.1c0,1.8,0,3.5,0.2,5.3
	c0,0.2-0.6,0.7-2.7,0.7c-0.3,0-0.7,0-1-0.2c0-2.9,0.1-6.3,0.1-7.4v-0.3c-1.3-1.9-4.3-7.6-4.8-8.2c-0.5-0.4-1.1-0.6-1.7-0.6
	c0-0.1,0-0.1,0-0.2c0-0.5,0.2-1,0.4-1.5c1.2-0.3,2.5-0.4,3.7-0.4c0.1,0,0.3,0,0.4,0.1C180.3,25.6,182.7,30.9,184,32.9L184,32.9z"/>
<path d="M208.7,43.8c-0.5,0.5-2.6,0.8-3.6,0.8c-0.2,0-0.4,0-0.4-0.1c-0.2-0.8-1.8-9.6-2.2-10.6c-0.1-0.1-0.1-0.2-0.1-0.2
	s-0.1,0.2-0.1,0.2c-1,3-1.8,6.1-2.3,9.3c0,0.2-1.8,0.8-3.3,0.8c-0.1,0-0.3,0-0.4-0.1c-0.9-0.9-3.7-14.1-3.7-18.1
	c0.8-0.5,1.8-0.8,2.7-0.7c0.2,0,0.4,0,0.6,0.1c0.1,1,0.7,9.5,2,12.7c0,0,0.1,0.2,0.1,0.2s0.1,0,0.1-0.2s2.2-8.6,2.7-9.1
	c0.9-0.3,1.8-0.4,2.7-0.4c0.4,0,0.7,0.1,1.1,0.2c0.1,0.1,1.8,8.7,2.2,10.1c0,0,0.1,0.6,0.4,0c1.1-3.5,1.7-7.2,1.9-10.9
	c0-0.4-0.9-0.8-1.5-0.9c0-0.1,0-0.2,0-0.3c0-0.5,0.1-1,0.3-1.4c1.6-0.4,3.3-0.6,4.9-0.6c0.1,0,0.3,0,0.4,0.1
	C213.2,30.6,209.2,43.3,208.7,43.8z"/>
<path d="M222.4,37.1c-1,0-2.1,0-3.1,0.1c-0.8,2.2-1.3,4.5-1.6,6.8c-0.2,0-0.4,0-0.6,0c-1,0-1.9-0.1-2.9-0.5c0.5-2.1,1.1-4.3,1.9-6.3
	c-0.7-0.8-1.1-1.7-1.3-2.8c0,0,0.9,0,2.3-0.1c1.1-3.3,2.4-6.6,2.5-6.8c0.7-0.2,1.4-0.4,2.1-0.4c0,0-0.2-1.4-0.2-1.8
	c0.9-0.6,2.1-1,3.2-1c0,0,2.3,14.2,4.9,18.7l0.2,0.3c-0.9,0.8-2.1,1.3-3.4,1.4c-0.4,0-2.1-6-2.4-7.7C223.5,37.1,223,37.1,222.4,37.1
	z M222.1,29.6c-0.1,0-0.1,0.1-0.1,0.1c-0.3,0.6-1.5,3.7-1.8,4.6c1,0,2,0,3,0.1C222.6,32,222.2,29.9,222.1,29.6
	C222.2,29.6,222.2,29.6,222.1,29.6L222.1,29.6z"/>
<path d="M243.5,44c-0.9-0.1-1.7-0.3-2.5-0.7c-2.5,0.3-5.1,0.5-7.6,0.5c-0.4,0-0.7,0-1.1-0.1c-0.1-0.8-0.1-1.6-0.1-2.4
	c0-2.7,0.1-7.2,0.1-10.3c0.1-1.1,0-2.3-0.2-3.4c-0.4-0.7-0.6-1.4-0.8-2.1c0-0.2,2.1-0.8,3.6-0.8c0,0,0.7,0,0.8,0.1
	c0.1,0.5,0.1,1.1,0.1,1.6c0,2.6-0.2,7.6-0.2,11.1c0,1.3,0,2.4,0.1,3.1c0.5,0.1,1,0.1,1.5,0.1c3.7,0,4.1-2.4,4.7-5.2c0,0,0.1,0,0.2,0
	c0.8,0.1,1.6,0.4,2.3,0.9C244.2,38.8,243.9,43.6,243.5,44C243.5,44,243.5,44,243.5,44z"/>
<path d="M253.9,32.5c0.7,0,1.5,0,2.2,0.1c-0.1,0.9-0.4,1.9-0.9,2.6c-1.5,0-2.9,0.1-4.4,0.4c0,0.3,0,0.6,0,0.8c0,1.3,0,2.5,0.1,3.8
	c0.4,0.4,3.9,0.4,4.6,0.4c0.9,0,1.9-0.1,2.8-0.2h0c-0.1,1.1-0.6,2.1-1.4,2.9c-1.8,0.2-3.6,0.3-5.4,0.3c-1.4,0.1-2.8,0-4.2-0.2
	c-0.1-1.3-0.2-2.5-0.2-3.8c0-1.2,0-2.7,0-4c-0.7-0.8-1.2-1.8-1.3-2.9c0.5-0.1,1-0.1,1.4-0.1c0-1.1,0-2.2,0-2.9c0-0.4,0-0.8-0.1-1.3
	c-0.6-0.9-1-1.9-1.3-2.9c0.2-0.2,7.2-0.3,9.5-0.3c0.8,0,1.5,0,2.3,0.1c0,1-0.5,2-1.2,2.7c-0.3,0-0.5-0.1-0.8-0.1
	c-1.7,0-3.4,0.1-5,0.4c-0.2,1-0.2,2-0.2,3c0,0.6,0,1.1,0,1.1C251.9,32.5,252.9,32.5,253.9,32.5z"/>
<polygon class="st0" points="15.5,59.5 20.9,59.1 42.3,34.8 41,30.6 "/>
<polygon class="st1" points="62.1,59 63.8,55 28.4,55.6 24.3,59.6 "/>
<polygon class="st1" points="72.8,52.2 74.8,47.8 34.8,47.8 30.8,52.2 "/>
<polygon class="st2" points="42.7,10.4 38.1,10 48.3,45 52.8,44.9 "/>
<polygon class="st0" points="6,60.1 11.7,60.2 40.2,27.3 38.6,22.1 "/>
<polygon class="st2" points="50.5,14 46,13.9 55.1,45 59.5,44.9 "/>
</svg>
